<svg xmlns="http://www.w3.org/2000/svg" version="1.1" xmlns:xlink="http://www.w3.org/1999/xlink" xmlns:svgjs="http://svgjs.dev/svgjs" viewBox="0 0 12.285245432679206 9.177294981877685"><g transform="matrix(1,0,0,1,0.8829639028630405,6.785331079014645)"><rect width="12.285245432679206" height="12.285245432679206" x="-0.8829639028630405" y="-8.339306304415405" fill="#ffffff"></rect><g><path d=" M 1.242 1.0785 Q 1.242 1.0875 1.239 1.0875 Q 1.1895 1.0875 1.1595 1.0859999999999999 L 1.0515 1.0845 L 0.9465 1.0859999999999999 Q 0.9195 1.0875 0.87 1.0875 Q 0.867 1.0875 0.867 1.0785 Q 0.867 1.0695 0.87 1.0695 Q 0.936 1.0695 0.9585 1.0545 Q 0.981 1.0394999999999999 0.981 0.9914999999999999 L 0.9795 0.966 L 0.9495 0.32999999999999985 L 0.63 1.077 Q 0.627 1.083 0.618 1.083 Q 0.6105 1.083 0.6045 1.077 L 0.2295 0.33599999999999985 L 0.216 0.9059999999999999 Q 0.2145 0.9854999999999999 0.24675 1.0274999999999999 Q 0.279 1.0695 0.3435 1.0695 Q 0.34800000000000003 1.0695 0.34800000000000003 1.0785 Q 0.34800000000000003 1.0875 0.3435 1.0875 Q 0.303 1.0875 0.2805 1.0859999999999999 L 0.198 1.0845 L 0.1095 1.0859999999999999 Q 0.08700000000000001 1.0875 0.0465 1.0875 Q 0.042 1.0875 0.042 1.0785 Q 0.042 1.0695 0.0465 1.0695 Q 0.108 1.0695 0.14175000000000001 1.0274999999999999 Q 0.17550000000000002 0.9854999999999999 0.177 0.9059999999999999 L 0.1905 0.2609999999999999 Q 0.1635 0.21299999999999986 0.13125 0.1904999999999999 Q 0.099 0.16799999999999993 0.057 0.16799999999999993 Q 0.0525 0.16799999999999993 0.0525 0.15899999999999992 Q 0.0525 0.1499999999999999 0.057 0.1499999999999999 L 0.1215 0.15149999999999986 Q 0.14100000000000001 0.1529999999999999 0.17250000000000001 0.1529999999999999 L 0.243 0.15149999999999986 Q 0.255 0.1499999999999999 0.273 0.1499999999999999 Q 0.2925 0.1499999999999999 0.3045 0.1642499999999999 Q 0.3165 0.17849999999999988 0.342 0.22799999999999987 L 0.672 0.8714999999999999 L 0.9705 0.1874999999999999 Q 0.9795 0.16649999999999987 0.99 0.1582499999999999 Q 1.0005 0.1499999999999999 1.0155 0.1499999999999999 Q 1.026 0.1499999999999999 1.0425 0.15149999999999986 Q 1.059 0.1529999999999999 1.083 0.1529999999999999 L 1.164 0.15149999999999986 Q 1.1835 0.1499999999999999 1.2225 0.1499999999999999 Q 1.2255 0.1499999999999999 1.2255 0.15899999999999992 Q 1.2255 0.16799999999999993 1.2225 0.16799999999999993 Q 1.1505 0.16799999999999993 1.11825 0.19424999999999992 Q 1.086 0.22049999999999992 1.089 0.28049999999999986 L 1.1235 0.966 Q 1.1265 1.0125 1.13475 1.0334999999999999 Q 1.143 1.0545 1.1655 1.0619999999999998 Q 1.188 1.0695 1.239 1.0695 Q 1.242 1.0695 1.242 1.0785 M 1.9994633789062504 0.9929999999999999 Q 2.00546337890625 0.9929999999999999 2.0092133789062503 0.9997499999999999 Q 2.0129633789062504 1.0065 2.0084633789062503 1.0094999999999998 L 1.8119633789062504 1.1039999999999999 Q 1.8089633789062503 1.1055 1.80446337890625 1.1055 Q 1.7909633789062502 1.1055 1.7797133789062503 1.0755 Q 1.7684633789062503 1.0454999999999999 1.7654633789062502 0.9974999999999999 Q 1.7144633789062502 1.047 1.6619633789062502 1.07625 Q 1.6094633789062502 1.1055 1.5464633789062503 1.1055 Q 1.4864633789062502 1.1055 1.4354633789062503 1.0747499999999999 Q 1.3844633789062502 1.0439999999999998 1.3544633789062501 0.9847499999999999 Q 1.3244633789062503 0.9254999999999999 1.3244633789062503 0.843 Q 1.3244633789062503 0.7364999999999999 1.3747133789062502 0.6562499999999999 Q 1.4249633789062501 0.5759999999999998 1.5052133789062503 0.5332499999999999 Q 1.5854633789062502 0.49049999999999994 1.6724633789062502 0.49049999999999994 Q 1.7564633789062503 0.49049999999999994 1.8179633789062501 0.5309999999999999 Q 1.8494633789062502 0.5159999999999999 1.8704633789062504 0.4919999999999999 Q 1.8719633789062502 0.49049999999999994 1.87496337890625 0.49049999999999994 Q 1.8779633789062502 0.49049999999999994 1.8817133789062503 0.4927499999999999 Q 1.8854633789062503 0.4949999999999999 1.8854633789062503 0.4979999999999999 L 1.8854633789062503 0.9254999999999999 Q 1.8854633789062503 0.9719999999999999 1.8959633789062502 0.9914999999999999 Q 1.9064633789062504 1.011 1.9304633789062502 1.011 Q 1.9559633789062503 1.011 1.9979633789062503 0.9929999999999999 L 1.9994633789062504 0.9929999999999999 M 1.7639633789062503 0.9719999999999999 L 1.7639633789062503 0.966 L 1.7639633789062503 0.6524999999999999 Q 1.7639633789062503 0.5954999999999999 1.7264633789062502 0.5579999999999999 Q 1.6889633789062501 0.5204999999999999 1.6334633789062503 0.5204999999999999 Q 1.5554633789062502 0.5204999999999999 1.5082133789062502 0.597 Q 1.4609633789062502 0.6734999999999999 1.4609633789062502 0.7949999999999999 Q 1.4609633789062502 0.9075 1.5022133789062502 0.9719999999999999 Q 1.5434633789062502 1.0365 1.6154633789062502 1.0365 Q 1.6814633789062503 1.0365 1.7639633789062503 0.9719999999999999 M 2.77044873046875 1.0785 Q 2.77044873046875 1.0875 2.7659487304687502 1.0875 Q 2.72844873046875 1.0875 2.70744873046875 1.0859999999999999 L 2.62044873046875 1.0845 L 2.53494873046875 1.0859999999999999 Q 2.51244873046875 1.0875 2.47494873046875 1.0875 Q 2.47044873046875 1.0875 2.47044873046875 1.0785 Q 2.47044873046875 1.0695 2.47494873046875 1.0695 Q 2.52594873046875 1.0695 2.5424487304687498 1.0485 Q 2.55894873046875 1.0274999999999999 2.55894873046875 0.966 L 2.55894873046875 0.7409999999999999 Q 2.55894873046875 0.6569999999999999 2.52819873046875 0.6172499999999999 Q 2.49744873046875 0.5774999999999999 2.43144873046875 0.5774999999999999 Q 2.39244873046875 0.5774999999999999 2.35194873046875 0.5954999999999999 Q 2.31144873046875 0.6134999999999999 2.27844873046875 0.6435 L 2.27844873046875 0.966 Q 2.27844873046875 1.0274999999999999 2.29494873046875 1.0485 Q 2.31144873046875 1.0695 2.36244873046875 1.0695 Q 2.36694873046875 1.0695 2.36694873046875 1.0785 Q 2.36694873046875 1.0875 2.36244873046875 1.0875 Q 2.32494873046875 1.0875 2.30394873046875 1.0859999999999999 L 2.21694873046875 1.0845 L 2.12994873046875 1.0859999999999999 Q 2.10894873046875 1.0875 2.07144873046875 1.0875 Q 2.06694873046875 1.0875 2.06694873046875 1.0785 Q 2.06694873046875 1.0695 2.07144873046875 1.0695 Q 2.12244873046875 1.0695 2.13894873046875 1.0485 Q 2.15544873046875 1.0274999999999999 2.15544873046875 0.966 L 2.15544873046875 0.6794999999999999 Q 2.15544873046875 0.6315 2.14419873046875 0.6089999999999999 Q 2.13294873046875 0.5864999999999999 2.10744873046875 0.5864999999999999 Q 2.08494873046875 0.5864999999999999 2.03244873046875 0.6089999999999999 L 2.03094873046875 0.6089999999999999 Q 2.02494873046875 0.6089999999999999 2.02194873046875 0.6014999999999999 Q 2.01894873046875 0.5939999999999999 2.02344873046875 0.5924999999999999 L 2.21994873046875 0.49649999999999994 Q 2.22894873046875 0.49349999999999994 2.23044873046875 0.49349999999999994 Q 2.24544873046875 0.49349999999999994 2.26119873046875 0.5272499999999999 Q 2.27694873046875 0.5609999999999999 2.27844873046875 0.6149999999999999 Q 2.38344873046875 0.49049999999999994 2.50644873046875 0.49049999999999994 Q 2.5889487304687497 0.49049999999999994 2.63544873046875 0.54075 Q 2.68194873046875 0.591 2.68194873046875 0.6764999999999999 L 2.68194873046875 0.966 Q 2.68194873046875 1.0274999999999999 2.69844873046875 1.0485 Q 2.71494873046875 1.0695 2.7659487304687502 1.0695 Q 2.77044873046875 1.0695 2.77044873046875 1.0785 M 2.937714111328125 0.31499999999999995 Q 2.915964111328125 0.29399999999999993 2.915964111328125 0.2549999999999999 Q 2.915964111328125 0.21749999999999992 2.937714111328125 0.19724999999999993 Q 2.959464111328125 0.17699999999999994 2.998464111328125 0.17699999999999994 Q 3.035964111328125 0.17699999999999994 3.056964111328125 0.19724999999999993 Q 3.077964111328125 0.21749999999999992 3.077964111328125 0.2549999999999999 Q 3.077964111328125 0.29399999999999993 3.057714111328125 0.31499999999999995 Q 3.037464111328125 0.33599999999999985 2.998464111328125 0.33599999999999985 Q 2.959464111328125 0.33599999999999985 2.937714111328125 0.31499999999999995 M 2.855964111328125 1.0785 Q 2.855964111328125 1.0695 2.860464111328125 1.0695 Q 2.911464111328125 1.0695 2.927964111328125 1.0485 Q 2.944464111328125 1.0274999999999999 2.944464111328125 0.966 L 2.944464111328125 0.6929999999999998 Q 2.944464111328125 0.6419999999999999 2.933964111328125 0.6187499999999999 Q 2.923464111328125 0.5954999999999999 2.897964111328125 0.5954999999999999 Q 2.875464111328125 0.5954999999999999 2.839464111328125 0.6134999999999999 L 2.837964111328125 0.6134999999999999 Q 2.831964111328125 0.6134999999999999 2.828964111328125 0.6059999999999999 Q 2.825964111328125 0.5984999999999999 2.830464111328125 0.5954999999999999 L 3.046464111328125 0.4949999999999999 L 3.050964111328125 0.49349999999999994 Q 3.056964111328125 0.49349999999999994 3.063714111328125 0.5002499999999999 Q 3.070464111328125 0.5069999999999999 3.070464111328125 0.5114999999999998 L 3.070464111328125 0.5429999999999999 Q 3.067464111328125 0.6059999999999999 3.067464111328125 0.6914999999999999 L 3.067464111328125 0.966 Q 3.067464111328125 1.0274999999999999 3.084714111328125 1.0485 Q 3.101964111328125 1.0695 3.152964111328125 1.0695 Q 3.157464111328125 1.0695 3.157464111328125 1.0785 Q 3.157464111328125 1.0875 3.152964111328125 1.0875 Q 3.115464111328125 1.0875 3.0929641113281248 1.0859999999999999 L 3.005964111328125 1.0845 L 2.918964111328125 1.0859999999999999 Q 2.897964111328125 1.0875 2.860464111328125 1.0875 Q 2.855964111328125 1.0875 2.855964111328125 1.0785 M 3.393700927734375 0.6644999999999999 Q 3.425950927734375 0.696 3.487450927734375 0.7304999999999999 Q 3.541450927734375 0.7605 3.570700927734375 0.7799999999999999 Q 3.599950927734375 0.7994999999999999 3.6217009277343752 0.8324999999999999 Q 3.643450927734375 0.8654999999999999 3.643450927734375 0.9119999999999999 Q 3.643450927734375 0.9629999999999999 3.617950927734375 1.0065 Q 3.592450927734375 1.0499999999999998 3.542200927734375 1.077 Q 3.4919509277343748 1.1039999999999999 3.422950927734375 1.1039999999999999 Q 3.340450927734375 1.1039999999999999 3.271450927734375 1.0619999999999998 Q 3.262450927734375 1.053 3.262450927734375 1.0439999999999998 L 3.259450927734375 0.9059999999999999 Q 3.259450927734375 0.9015 3.267700927734375 0.9007499999999999 Q 3.275950927734375 0.8999999999999999 3.277450927734375 0.9029999999999999 Q 3.302950927734375 0.9779999999999999 3.354700927734375 1.0259999999999998 Q 3.406450927734375 1.0739999999999998 3.464950927734375 1.0739999999999998 Q 3.502450927734375 1.0739999999999998 3.523450927734375 1.0545 Q 3.544450927734375 1.035 3.544450927734375 0.9959999999999999 Q 3.544450927734375 0.939 3.511450927734375 0.9052499999999999 Q 3.478450927734375 0.8714999999999999 3.415450927734375 0.8384999999999999 Q 3.364450927734375 0.8114999999999999 3.335950927734375 0.7927499999999998 Q 3.307450927734375 0.7739999999999999 3.287200927734375 0.7417499999999999 Q 3.266950927734375 0.7094999999999999 3.266950927734375 0.6615 Q 3.266950927734375 0.5759999999999998 3.329200927734375 0.5339999999999999 Q 3.391450927734375 0.4919999999999999 3.479950927734375 0.4919999999999999 Q 3.538450927734375 0.4919999999999999 3.599950927734375 0.5144999999999998 Q 3.613450927734375 0.5204999999999999 3.613450927734375 0.5309999999999999 Q 3.613450927734375 0.5654999999999999 3.611950927734375 0.5849999999999999 L 3.610450927734375 0.6569999999999999 Q 3.610450927734375 0.6615 3.601450927734375 0.6615 Q 3.592450927734375 0.6615 3.592450927734375 0.6569999999999999 Q 3.592450927734375 0.6269999999999999 3.568450927734375 0.5947499999999999 Q 3.544450927734375 0.5624999999999999 3.506950927734375 0.5414999999999999 Q 3.469450927734375 0.5204999999999999 3.430450927734375 0.5204999999999999 Q 3.361450927734375 0.5204999999999999 3.361450927734375 0.5864999999999999 Q 3.361450927734375 0.6329999999999999 3.393700927734375 0.6644999999999999 M 4.43391357421875 1.0785 Q 4.43391357421875 1.0875 4.42791357421875 1.0875 Q 4.39041357421875 1.0875 4.3679135742187505 1.0859999999999999 L 4.28241357421875 1.0845 L 4.19691357421875 1.0859999999999999 Q 4.17441357421875 1.0875 4.13691357421875 1.0875 Q 4.13241357421875 1.0875 4.13241357421875 1.0785 Q 4.13241357421875 1.0695 4.13691357421875 1.0695 Q 4.18641357421875 1.0695 4.20441357421875 1.04775 Q 4.22241357421875 1.0259999999999998 4.22241357421875 0.966 L 4.22241357421875 0.7424999999999999 Q 4.22241357421875 0.5774999999999999 4.09341357421875 0.5774999999999999 Q 4.05291357421875 0.5774999999999999 4.01166357421875 0.59625 Q 3.97041357421875 0.6149999999999999 3.93891357421875 0.6464999999999999 L 3.93891357421875 0.966 Q 3.93891357421875 1.0274999999999999 3.95616357421875 1.0485 Q 3.97341357421875 1.0695 4.02441357421875 1.0695 Q 4.03041357421875 1.0695 4.03041357421875 1.0785 Q 4.03041357421875 1.0875 4.02441357421875 1.0875 Q 3.9869135742187503 1.0875 3.96441357421875 1.0859999999999999 L 3.87891357421875 1.0845 L 3.79341357421875 1.0859999999999999 Q 3.77091357421875 1.0875 3.73341357421875 1.0875 Q 3.72891357421875 1.0875 3.72891357421875 1.0785 Q 3.72891357421875 1.0695 3.73341357421875 1.0695 Q 3.78291357421875 1.0695 3.80091357421875 1.04775 Q 3.81891357421875 1.0259999999999998 3.81891357421875 0.966 L 3.81891357421875 0.1994999999999999 Q 3.81891357421875 0.1469999999999999 3.80841357421875 0.12374999999999992 Q 3.79791357421875 0.10049999999999992 3.77391357421875 0.10049999999999992 Q 3.75141357421875 0.10049999999999992 3.71241357421875 0.11849999999999994 L 3.71091357421875 0.11849999999999994 Q 3.70641357421875 0.11849999999999994 3.70266357421875 0.11024999999999985 Q 3.69891357421875 0.10199999999999987 3.70341357421875 0.10049999999999992 L 3.91191357421875 0.0014999999999998348 L 3.91941357421875 -2.220446049250313e-16 Q 3.92541357421875 -2.220446049250313e-16 3.93216357421875 0.005999999999999783 Q 3.93891357421875 0.011999999999999789 3.93891357421875 0.01649999999999996 L 3.93891357421875 0.6164999999999998 Q 4.04691357421875 0.4919999999999999 4.16841357421875 0.4919999999999999 Q 4.25091357421875 0.4919999999999999 4.29666357421875 0.5414999999999999 Q 4.3424135742187495 0.591 4.3424135742187495 0.6764999999999999 L 4.3424135742187495 0.966 Q 4.3424135742187495 1.0274999999999999 4.35966357421875 1.0485 Q 4.37691357421875 1.0695 4.42791357421875 1.0695 Q 4.43391357421875 1.0695 4.43391357421875 1.0785 M 5.88289892578125 1.0785 Q 5.88289892578125 1.0875 5.87539892578125 1.0875 Q 5.84689892578125 1.0875 5.78389892578125 1.0845 Q 5.72089892578125 1.0815 5.69239892578125 1.0815 Q 5.65489892578125 1.0815 5.60389892578125 1.0845 Q 5.55289892578125 1.0875 5.5243989257812505 1.0875 Q 5.51839892578125 1.0875 5.51839892578125 1.0785 Q 5.51839892578125 1.0695 5.5243989257812505 1.0695 Q 5.56789892578125 1.0695 5.58814892578125 1.05975 Q 5.60839892578125 1.0499999999999998 5.60839892578125 1.0274999999999999 Q 5.60839892578125 1.005 5.58289892578125 0.9509999999999998 L 5.42089892578125 0.6224999999999998 L 5.1493989257812505 0.6224999999999998 L 5.03389892578125 0.8819999999999999 Q 5.01439892578125 0.9269999999999999 5.01439892578125 0.9629999999999999 Q 5.01439892578125 1.0154999999999998 5.05189892578125 1.0425 Q 5.08939892578125 1.0695 5.15689892578125 1.0695 Q 5.16439892578125 1.0695 5.16439892578125 1.0785 Q 5.16439892578125 1.0875 5.15689892578125 1.0875 Q 5.12989892578125 1.0875 5.07889892578125 1.0845 Q 5.02189892578125 1.0815 4.97989892578125 1.0815 Q 4.93939892578125 1.0815 4.88539892578125 1.0845 Q 4.83739892578125 1.0875 4.80589892578125 1.0875 Q 4.79839892578125 1.0875 4.79839892578125 1.0785 Q 4.79839892578125 1.0695 4.80589892578125 1.0695 Q 4.84789892578125 1.0695 4.87639892578125 1.053 Q 4.90489892578125 1.0365 4.93189892578125 0.9937499999999999 Q 4.95889892578125 0.9509999999999998 4.99639892578125 0.8669999999999999 L 5.31889892578125 0.1409999999999999 Q 5.32189892578125 0.13649999999999984 5.33239892578125 0.13649999999999984 Q 5.34289892578125 0.13649999999999984 5.34439892578125 0.1409999999999999 L 5.7118989257812505 0.8819999999999999 Q 5.76439892578125 0.9899999999999999 5.79964892578125 1.02975 Q 5.83489892578125 1.0695 5.87539892578125 1.0695 Q 5.88289892578125 1.0695 5.88289892578125 1.0785 M 5.16589892578125 0.5849999999999999 L 5.40289892578125 0.5849999999999999 L 5.27839892578125 0.33299999999999985 L 5.16589892578125 0.5849999999999999 M 6.059146728515625 1.0627499999999999 Q 5.990896728515625 1.02 5.957896728515625 0.9517499999999999 Q 5.924896728515625 0.8835 5.924896728515625 0.8084999999999999 Q 5.924896728515625 0.714 5.975896728515625 0.6427499999999999 Q 6.026896728515625 0.5714999999999999 6.107146728515625 0.5332499999999999 Q 6.187396728515625 0.4949999999999999 6.269896728515625 0.4949999999999999 Q 6.340396728515625 0.4949999999999999 6.397396728515625 0.5234999999999999 Q 6.454396728515625 0.5519999999999999 6.454396728515625 0.5999999999999999 Q 6.454396728515625 0.6255 6.434896728515625 0.6442499999999999 Q 6.415396728515625 0.6629999999999999 6.380896728515625 0.6629999999999999 Q 6.323896728515625 0.6629999999999999 6.298396728515625 0.5954999999999999 Q 6.283396728515625 0.5579999999999999 6.266896728515625 0.5422499999999999 Q 6.250396728515625 0.5264999999999999 6.214396728515625 0.5264999999999999 Q 6.143896728515625 0.5264999999999999 6.102646728515625 0.5902499999999999 Q 6.061396728515625 0.6539999999999999 6.061396728515625 0.7605 Q 6.061396728515625 0.8849999999999999 6.119146728515625 0.9622499999999999 Q 6.176896728515625 1.0394999999999999 6.299896728515625 1.0394999999999999 Q 6.341896728515625 1.0394999999999999 6.374896728515625 1.029 Q 6.407896728515625 1.0185 6.446896728515625 0.9959999999999999 L 6.448396728515625 0.9959999999999999 Q 6.452896728515625 0.9959999999999999 6.456646728515625 1.0005 Q 6.460396728515625 1.005 6.457396728515625 1.008 Q 6.401896728515625 1.0574999999999999 6.347896728515625 1.0815 Q 6.293896728515625 1.1055 6.224896728515625 1.1055 Q 6.127396728515625 1.1055 6.059146728515625 1.0627499999999999 M 7.22089892578125 0.9929999999999999 Q 7.22689892578125 0.9929999999999999 7.23064892578125 0.9997499999999999 Q 7.2343989257812495 1.0065 7.22989892578125 1.0094999999999998 L 7.03339892578125 1.1039999999999999 Q 7.03039892578125 1.1055 7.02589892578125 1.1055 Q 7.01239892578125 1.1055 7.00114892578125 1.0755 Q 6.98989892578125 1.0454999999999999 6.98689892578125 0.9974999999999999 Q 6.93589892578125 1.047 6.8833989257812505 1.07625 Q 6.83089892578125 1.1055 6.76789892578125 1.1055 Q 6.70789892578125 1.1055 6.65689892578125 1.0747499999999999 Q 6.60589892578125 1.0439999999999998 6.57589892578125 0.9847499999999999 Q 6.54589892578125 0.9254999999999999 6.54589892578125 0.843 Q 6.54589892578125 0.7364999999999999 6.59614892578125 0.6562499999999999 Q 6.64639892578125 0.5759999999999998 6.72664892578125 0.5332499999999999 Q 6.80689892578125 0.49049999999999994 6.89389892578125 0.49049999999999994 Q 6.97789892578125 0.49049999999999994 7.03939892578125 0.5309999999999999 Q 7.0708989257812505 0.5159999999999999 7.09189892578125 0.4919999999999999 Q 7.0933989257812495 0.49049999999999994 7.09639892578125 0.49049999999999994 Q 7.09939892578125 0.49049999999999994 7.10314892578125 0.4927499999999999 Q 7.10689892578125 0.4949999999999999 7.10689892578125 0.4979999999999999 L 7.10689892578125 0.9254999999999999 Q 7.10689892578125 0.9719999999999999 7.11739892578125 0.9914999999999999 Q 7.12789892578125 1.011 7.15189892578125 1.011 Q 7.17739892578125 1.011 7.21939892578125 0.9929999999999999 L 7.22089892578125 0.9929999999999999 M 6.98539892578125 0.9719999999999999 L 6.98539892578125 0.966 L 6.98539892578125 0.6524999999999999 Q 6.98539892578125 0.5954999999999999 6.94789892578125 0.5579999999999999 Q 6.91039892578125 0.5204999999999999 6.85489892578125 0.5204999999999999 Q 6.77689892578125 0.5204999999999999 6.72964892578125 0.597 Q 6.68239892578125 0.6734999999999999 6.68239892578125 0.7949999999999999 Q 6.68239892578125 0.9075 6.72364892578125 0.9719999999999999 Q 6.76489892578125 1.0365 6.8368989257812505 1.0365 Q 6.90289892578125 1.0365 6.98539892578125 0.9719999999999999 M 7.98738427734375 0.9944999999999999 Q 7.99188427734375 0.9944999999999999 7.99563427734375 1.002 Q 7.99938427734375 1.0094999999999998 7.9948842773437505 1.011 L 7.80288427734375 1.1039999999999999 L 7.79388427734375 1.1055 Q 7.77888427734375 1.1055 7.76613427734375 1.0755 Q 7.75338427734375 1.0454999999999999 7.75188427734375 0.9944999999999999 Q 7.69788427734375 1.0454999999999999 7.64088427734375 1.07625 Q 7.58388427734375 1.107 7.51638427734375 1.107 Q 7.45188427734375 1.107 7.39788427734375 1.07175 Q 7.34388427734375 1.0365 7.31238427734375 0.9704999999999999 Q 7.28088427734375 0.9044999999999999 7.28088427734375 0.8159999999999998 Q 7.28088427734375 0.7049999999999998 7.33338427734375 0.6315 Q 7.38588427734375 0.5579999999999999 7.46538427734375 0.5234999999999999 Q 7.54488427734375 0.4889999999999999 7.62438427734375 0.4889999999999999 Q 7.69038427734375 0.4889999999999999 7.75038427734375 0.5129999999999999 L 7.75038427734375 0.1994999999999999 Q 7.75038427734375 0.1469999999999999 7.74063427734375 0.12374999999999992 Q 7.73088427734375 0.10049999999999992 7.70538427734375 0.10049999999999992 Q 7.68888427734375 0.10049999999999992 7.64538427734375 0.11849999999999994 L 7.64238427734375 0.11849999999999994 Q 7.63638427734375 0.11849999999999994 7.63338427734375 0.11099999999999988 Q 7.63038427734375 0.10349999999999993 7.63338427734375 0.10199999999999987 L 7.84488427734375 0.0014999999999998348 L 7.85088427734375 -2.220446049250313e-16 Q 7.85688427734375 -2.220446049250313e-16 7.86438427734375 0.005999999999999783 Q 7.87188427734375 0.011999999999999789 7.87188427734375 0.01649999999999996 L 7.87188427734375 0.9164999999999999 Q 7.87188427734375 0.9689999999999999 7.88238427734375 0.9907499999999999 Q 7.89288427734375 1.0125 7.91838427734375 1.0125 Q 7.94838427734375 1.0125 7.98588427734375 0.9944999999999999 L 7.98738427734375 0.9944999999999999 M 7.67313427734375 1.0214999999999999 Q 7.71138427734375 1.002 7.75038427734375 0.966 L 7.75038427734375 0.9644999999999999 L 7.75038427734375 0.6074999999999999 Q 7.72038427734375 0.5654999999999999 7.68363427734375 0.5452499999999999 Q 7.64688427734375 0.5249999999999999 7.59588427734375 0.5249999999999999 Q 7.51038427734375 0.5249999999999999 7.46388427734375 0.5842499999999999 Q 7.41738427734375 0.6435 7.41738427734375 0.7694999999999999 Q 7.41738427734375 0.8955 7.46613427734375 0.9682499999999999 Q 7.51488427734375 1.041 7.59138427734375 1.041 Q 7.63488427734375 1.041 7.67313427734375 1.0214999999999999 M 8.56786376953125 0.9929999999999999 Q 8.57086376953125 0.9929999999999999 8.57461376953125 0.9989999999999999 Q 8.57836376953125 1.005 8.57536376953125 1.008 Q 8.52136376953125 1.059 8.46586376953125 1.08225 Q 8.41036376953125 1.1055 8.34436376953125 1.1055 Q 8.25136376953125 1.1055 8.18461376953125 1.06575 Q 8.11786376953125 1.0259999999999998 8.08261376953125 0.9592499999999999 Q 8.04736376953125 0.8924999999999998 8.04736376953125 0.8159999999999998 Q 8.04736376953125 0.7274999999999999 8.09161376953125 0.6539999999999999 Q 8.13586376953125 0.5804999999999999 8.21311376953125 0.53775 Q 8.29036376953125 0.4949999999999999 8.38336376953125 0.4949999999999999 Q 8.47186376953125 0.4949999999999999 8.51986376953125 0.53475 Q 8.56786376953125 0.5744999999999999 8.56786376953125 0.6435 Q 8.56786376953125 0.6839999999999999 8.55136376953125 0.6839999999999999 L 8.46886376953125 0.6839999999999999 L 8.18686376953125 0.6869999999999998 Q 8.18236376953125 0.7184999999999999 8.18236376953125 0.7545 Q 8.18236376953125 0.8849999999999999 8.24311376953125 0.9622499999999999 Q 8.30386376953125 1.0394999999999999 8.41186376953125 1.0394999999999999 Q 8.45086376953125 1.0394999999999999 8.49136376953125 1.0282499999999999 Q 8.53186376953125 1.017 8.56486376953125 0.9944999999999999 L 8.56786376953125 0.9929999999999999 M 8.24386376953125 0.5609999999999999 Q 8.20786376953125 0.597 8.19286376953125 0.6599999999999999 L 8.42686376953125 0.6555 Q 8.42386376953125 0.5939999999999999 8.39986376953125 0.5594999999999999 Q 8.37586376953125 0.5249999999999999 8.32936376953125 0.5249999999999999 Q 8.27986376953125 0.5249999999999999 8.24386376953125 0.5609999999999999 M 9.755830810546875 1.0785 Q 9.755830810546875 1.0875 9.749830810546875 1.0875 Q 9.712330810546876 1.0875 9.689830810546875 1.0859999999999999 L 9.604330810546875 1.0845 L 9.518830810546875 1.0859999999999999 Q 9.496330810546874 1.0875 9.458830810546875 1.0875 Q 9.454330810546875 1.0875 9.454330810546875 1.0785 Q 9.454330810546875 1.0695 9.458830810546875 1.0695 Q 9.508330810546875 1.0695 9.526330810546876 1.04775 Q 9.544330810546874 1.0259999999999998 9.544330810546874 0.966 L 9.544330810546874 0.7424999999999999 Q 9.544330810546874 0.6584999999999999 9.515080810546875 0.6179999999999999 Q 9.485830810546876 0.5774999999999999 9.425830810546875 0.5774999999999999 Q 9.385330810546876 0.5774999999999999 9.344830810546876 0.597 Q 9.304330810546874 0.6164999999999998 9.274330810546875 0.6495 L 9.274330810546875 0.6644999999999999 L 9.274330810546875 0.966 Q 9.274330810546875 1.0274999999999999 9.291580810546876 1.0485 Q 9.308830810546874 1.0695 9.359830810546875 1.0695 Q 9.364330810546875 1.0695 9.364330810546875 1.0785 Q 9.364330810546875 1.0875 9.359830810546875 1.0875 Q 9.322330810546875 1.0875 9.299830810546876 1.0859999999999999 L 9.212830810546874 1.0845 L 9.127330810546875 1.0859999999999999 Q 9.104830810546876 1.0875 9.067330810546874 1.0875 Q 9.062830810546876 1.0875 9.062830810546876 1.0785 Q 9.062830810546876 1.0695 9.067330810546874 1.0695 Q 9.118330810546874 1.0695 9.135580810546875 1.0485 Q 9.152830810546876 1.0274999999999999 9.152830810546876 0.966 L 9.152830810546876 0.7424999999999999 Q 9.152830810546876 0.6584999999999999 9.123580810546875 0.6179999999999999 Q 9.094330810546875 0.5774999999999999 9.034330810546875 0.5774999999999999 Q 8.996830810546875 0.5774999999999999 8.957830810546875 0.5954999999999999 Q 8.918830810546876 0.6134999999999999 8.888830810546875 0.6435 L 8.888830810546875 0.966 Q 8.888830810546875 1.0274999999999999 8.905330810546875 1.0485 Q 8.921830810546876 1.0695 8.972830810546874 1.0695 Q 8.977330810546874 1.0695 8.977330810546874 1.0785 Q 8.977330810546874 1.0875 8.972830810546874 1.0875 Q 8.935330810546875 1.0875 8.914330810546875 1.0859999999999999 L 8.827330810546876 1.0845 L 8.740330810546874 1.0859999999999999 Q 8.719330810546875 1.0875 8.681830810546876 1.0875 Q 8.677330810546875 1.0875 8.677330810546875 1.0785 Q 8.677330810546875 1.0695 8.681830810546876 1.0695 Q 8.732830810546876 1.0695 8.749330810546875 1.0485 Q 8.765830810546875 1.0274999999999999 8.765830810546875 0.966 L 8.765830810546875 0.6794999999999999 Q 8.765830810546875 0.6315 8.754580810546875 0.6089999999999999 Q 8.743330810546874 0.5864999999999999 8.717830810546875 0.5864999999999999 Q 8.695330810546874 0.5864999999999999 8.642830810546876 0.6089999999999999 L 8.641330810546876 0.6089999999999999 Q 8.635330810546876 0.6089999999999999 8.632330810546875 0.6014999999999999 Q 8.629330810546875 0.5939999999999999 8.633830810546876 0.5924999999999999 L 8.830330810546876 0.49649999999999994 Q 8.839330810546874 0.49349999999999994 8.840830810546874 0.49349999999999994 Q 8.855830810546875 0.49349999999999994 8.871580810546876 0.5272499999999999 Q 8.887330810546874 0.5609999999999999 8.888830810546875 0.6149999999999999 Q 8.989330810546875 0.4919999999999999 9.107830810546876 0.4919999999999999 Q 9.176830810546875 0.4919999999999999 9.218830810546875 0.5257499999999999 Q 9.260830810546874 0.5594999999999999 9.271330810546875 0.6239999999999999 Q 9.377830810546875 0.4919999999999999 9.499330810546875 0.4919999999999999 Q 9.578830810546876 0.4919999999999999 9.621580810546876 0.53775 Q 9.664330810546875 0.5834999999999999 9.664330810546875 0.6764999999999999 L 9.664330810546875 0.966 Q 9.664330810546875 1.0274999999999999 9.681580810546874 1.0485 Q 9.698830810546875 1.0695 9.749830810546875 1.0695 Q 9.755830810546875 1.0695 9.755830810546875 1.0785 M 10.411289794921874 0.5009999999999999 Q 10.418789794921874 0.5069999999999999 10.418789794921874 0.5114999999999998 L 10.418789794921874 1.1925 Q 10.418789794921874 1.3365 10.339289794921875 1.42275 Q 10.259789794921875 1.509 10.103789794921875 1.509 Q 10.013789794921875 1.509 9.950789794921874 1.4775 Q 9.887789794921876 1.446 9.887789794921876 1.3904999999999998 Q 9.887789794921876 1.3619999999999999 9.906539794921875 1.34475 Q 9.925289794921875 1.3275 9.955289794921875 1.3275 Q 9.986789794921876 1.3275 10.004789794921875 1.3432499999999998 Q 10.022789794921875 1.359 10.046789794921875 1.395 Q 10.072289794921875 1.4355 10.098539794921875 1.4565 Q 10.124789794921876 1.4775 10.172789794921876 1.4775 Q 10.231289794921874 1.4775 10.264289794921876 1.4249999999999998 Q 10.297289794921875 1.3725 10.297289794921875 1.2285 L 10.297289794921875 0.9824999999999999 Q 10.187789794921875 1.1039999999999999 10.067789794921875 1.1039999999999999 Q 9.986789794921876 1.1039999999999999 9.941789794921876 1.05375 Q 9.896789794921874 1.0034999999999998 9.896789794921874 0.9164999999999999 L 9.896789794921874 0.6929999999999998 Q 9.896789794921874 0.6404999999999998 9.886289794921876 0.6157499999999999 Q 9.875789794921875 0.591 9.851789794921874 0.591 Q 9.836789794921875 0.591 9.809789794921874 0.603 L 9.808289794921874 0.603 Q 9.802289794921874 0.603 9.799289794921876 0.5954999999999999 Q 9.796289794921876 0.5879999999999999 9.800789794921876 0.5849999999999999 L 9.991289794921874 0.49649999999999994 L 9.997289794921874 0.4949999999999999 Q 10.003289794921875 0.4949999999999999 10.011539794921875 0.5009999999999999 Q 10.019789794921875 0.5069999999999999 10.019789794921875 0.5114999999999998 L 10.019789794921875 0.8519999999999999 Q 10.019789794921875 0.9359999999999999 10.049039794921875 0.9757499999999999 Q 10.078289794921876 1.0154999999999998 10.141289794921875 1.0154999999999998 Q 10.180289794921874 1.0154999999999998 10.222289794921876 0.9982499999999999 Q 10.264289794921876 0.9809999999999999 10.297289794921875 0.9509999999999998 L 10.297289794921875 0.6929999999999998 Q 10.297289794921875 0.6404999999999998 10.286039794921875 0.6157499999999999 Q 10.274789794921874 0.591 10.250789794921875 0.591 Q 10.237289794921875 0.591 10.210289794921875 0.603 L 10.208789794921875 0.603 Q 10.202789794921875 0.603 10.199039794921875 0.5954999999999999 Q 10.195289794921875 0.5879999999999999 10.201289794921875 0.5849999999999999 L 10.390289794921875 0.49649999999999994 L 10.397789794921875 0.4949999999999999 Q 10.403789794921876 0.4949999999999999 10.411289794921874 0.5009999999999999" fill="#212245" fill-rule="nonzero"></path></g><g></g><g clip-path="url(#SvgjsClipPath1003)"><g clip-path="url(#bba39106d-04c1-4fc4-b33f-0c1546bc6a8ed15fe9a1-3d56-418e-8d85-4517d8eb5d3c)"><path d=" M 7.27879810193457 -1.8806039119400237 L 7.27879810193457 -5.768659339880696 C 7.27879810193457 -5.842203435364278 7.247089149782421 -5.9023671761516034 7.2083358907229425 -5.9023671761516034 L 5.799235232527917 -5.9023671761516034 C 5.760481973468439 -5.9023671761516034 5.728782592385459 -5.842203435364278 5.728782592385459 -5.768659339880696 L 5.728782592385459 -1.8806039119400237 C 5.728782592385459 -1.80705981645644 5.76048197346844 -1.7468865045999475 5.799235232527917 -1.7468865045999475 L 7.2083358907229425 -1.7468865045999475 C 7.247089149782421 -1.7468865045999475 7.27879810193457 -1.80705981645644 7.27879810193457 -1.8806039119400237" fill="#231f20" transform="matrix(1,0,0,1,0,0)" fill-rule="nonzero"></path></g><g clip-path="url(#bba39106d-04c1-4fc4-b33f-0c1546bc6a8ed15fe9a1-3d56-418e-8d85-4517d8eb5d3c)"><path d=" M 7.06807187207225 -5.6640666960175245 L 5.939499251178607 -5.6640666960175245 C 5.918146195865766 -5.6640666960175245 5.900678994634958 -5.660372263318844 5.900678994634958 -5.655854718671752 L 5.900678994634958 -5.491624742825473 C 5.900678994634958 -5.487107198178381 5.918146195865766 -5.4834127654797005 5.939489680109441 -5.4834127654797005 L 7.06807187207225 -5.4834127654797005 C 7.089424927385092 -5.4834127654797005 7.106882557546734 -5.487107198178381 7.106882557546734 -5.491624742825473 L 7.1068921286159 -5.655854718671752 C 7.1068921286159 -5.660372263318844 7.089424927385092 -5.6640666960175245 7.06807187207225 -5.6640666960175245" fill="#444141" transform="matrix(1,0,0,1,0,0)" fill-rule="nonzero"></path></g><g clip-path="url(#bba39106d-04c1-4fc4-b33f-0c1546bc6a8ed15fe9a1-3d56-418e-8d85-4517d8eb5d3c)"><path d=" M 7.06807187207225 -5.3923249002119675 L 5.939499251178607 -5.3923249002119675 C 5.918146195865766 -5.3923249002119675 5.900678994634958 -5.3863621241205735 5.900678994634958 -5.379068969414888 L 5.900678994634958 -5.1140269220266275 C 5.900678994634958 -5.106733767320941 5.918146195865766 -5.100770991229547 5.939489680109441 -5.100770991229547 L 7.06807187207225 -5.100770991229547 C 7.089415356315924 -5.100770991229547 7.106882557546734 -5.106733767320941 7.106882557546734 -5.1140269220266275 L 7.1068921286159 -5.379068969414888 C 7.1068921286159 -5.3863621241205735 7.089424927385092 -5.3923249002119675 7.06807187207225 -5.3923249002119675" fill="#444141" transform="matrix(1,0,0,1,0,0)" fill-rule="nonzero"></path></g><g clip-path="url(#bba39106d-04c1-4fc4-b33f-0c1546bc6a8ed15fe9a1-3d56-418e-8d85-4517d8eb5d3c)"><path d=" M 7.06807187207225 -4.9354690556365 L 5.939499251178607 -4.935488197774836 C 5.918146195865766 -4.935488197774836 5.900678994634958 -4.89215996765326 5.900678994634958 -4.8392032419491136 L 5.900678994634958 -2.012962227458306 C 5.900678994634958 -1.960005501754158 5.918146195865766 -1.916667700563416 5.939489680109441 -1.916667700563416 L 7.06807187207225 -1.9166485584250812 C 7.089415356315924 -1.9166485584250812 7.106882557546734 -1.9599767885466561 7.106882557546734 -2.012933514250803 L 7.1068921286159 -4.83917452874161 C 7.1068921286159 -4.892131254445758 7.089424927385092 -4.9354690556365 7.06807187207225 -4.9354690556365" fill="#444141" transform="matrix(1,0,0,1,0,0)" fill-rule="nonzero"></path></g><g clip-path="url(#bba39106d-04c1-4fc4-b33f-0c1546bc6a8ed15fe9a1-3d56-418e-8d85-4517d8eb5d3c)"><path d=" M 1.4649287046494428 -1.8063132730613702 L 4.053788061646258 -1.8063132730613702 L 4.053788061646258 -1.936546811224452 L 1.4649287046494428 -1.936546811224452 Z M 0 -0.25 L 7.4382808274737355 -0.25 L 7.4382808274737355 -0.29754907162447175 L 0 -0.29754907162447175 Z M 2.3867183761778037 -1.936546811224452 L 3.131998390117897 -1.936546811224452 L 3.131998390117897 -2.9218692398871218 L 2.3867183761778037 -2.9218692398871218 Z" fill="#231f20" transform="matrix(1,0,0,1,0,0)" fill-rule="nonzero"></path></g><g clip-path="url(#bba39106d-04c1-4fc4-b33f-0c1546bc6a8ed15fe9a1-3d56-418e-8d85-4517d8eb5d3c)"><path d=" M 5.3411351489606655 -5.867853900733357 L 0.17759118840420166 -5.867853900733357 C 0.07991842754918208 -5.867853900733357 0 -5.787945044253342 0 -5.690272283398323 L 0 -3.091497298743908 C 0 -2.993824537888889 0.07991842754918274 -2.9139156814088736 0.17759118840420166 -2.9139156814088736 L 5.3411351489606655 -2.9139156814088736 C 5.438807909815685 -2.9139156814088736 5.5187167662957 -2.993824537888889 5.5187167662957 -3.091497298743908 L 5.5187167662957 -5.690272283398323 C 5.5187167662957 -5.787945044253342 5.438807909815685 -5.867853900733357 5.3411351489606655 -5.867853900733357" fill="#231f20" transform="matrix(1,0,0,1,0,0)" fill-rule="nonzero"></path></g><g clip-path="url(#bba39106d-04c1-4fc4-b33f-0c1546bc6a8ed15fe9a1-3d56-418e-8d85-4517d8eb5d3c)"><path d=" M 0 -3.2232047815587954 L 0 -3.091497298743908 C 0 -2.993824537888889 0.07991842754918298 -2.9139156814088736 0.17759118840420243 -2.9139156814088736 L 5.3411351489606655 -2.9139156814088736 C 5.438798338746517 -2.9139156814088736 5.5187167662957 -2.993824537888889 5.5187167662957 -3.091497298743908 L 5.5187167662957 -3.2231856394204605 Z" fill="#231f20" transform="matrix(1,0,0,1,0,0)" fill-rule="nonzero"></path></g><g clip-path="url(#bba39106d-04c1-4fc4-b33f-0c1546bc6a8ed15fe9a1-3d56-418e-8d85-4517d8eb5d3c)"><path d=" M 0.1558170060479879 -5.687802947553091 L 0.1558170060479879 -3.2232047815587954 L 5.362890189178546 -3.2324600054438326 L 5.362890189178546 -5.687802947553091 Z" fill="#9cd41f" transform="matrix(1,0,0,1,0,0)" fill-rule="nonzero"></path></g><g clip-path="url(#bba39106d-04c1-4fc4-b33f-0c1546bc6a8ed15fe9a1-3d56-418e-8d85-4517d8eb5d3c)"><path d=" M 3.518152746752548 -5.687802947553091 L 2.2547716166337275 -3.2232047815587954 L 5.362899760247713 -3.2324600054438326 L 5.362899760247713 -5.687802947553091 Z" fill="#21b893" transform="matrix(1,0,0,1,0,0)" fill-rule="nonzero"></path></g></g></g><defs><clipPath id="SvgjsClipPath1003"><path d=" M 0 -5.9023671761516034 h 7.4382808274737355 v 5.6523671761516034 h -7.4382808274737355 Z"></path></clipPath><clipPath id="bba39106d-04c1-4fc4-b33f-0c1546bc6a8ed15fe9a1-3d56-418e-8d85-4517d8eb5d3c"><path d=" M -0.009571069167566823 -5.9119382453191704 L 7.4478518966413025 -5.9119382453191704 L 7.4478518966413025 -0.240428930832433 L -0.009571069167566823 -0.240428930832433 Z"></path></clipPath></defs></svg>